<?xml version="1.0" encoding="utf-8" standalone="no"?>
<!DOCTYPE svg PUBLIC "-//W3C//DTD SVG 1.1//EN"
  "http://www.w3.org/Graphics/SVG/1.1/DTD/svg11.dtd">
<svg height="345.6pt" version="1.1" viewBox="0 0 460.8 345.6" width="460.8pt" xmlns="http://www.w3.org/2000/svg" xmlns:xlink="http://www.w3.org/1999/xlink">
 <metadata>
  <rdf:RDF xmlns:cc="http://creativecommons.org/ns#" xmlns:dc="http://purl.org/dc/elements/1.1/" xmlns:rdf="http://www.w3.org/1999/02/22-rdf-syntax-ns#">
   <cc:Work>
    <dc:type rdf:resource="http://purl.org/dc/dcmitype/StillImage"/>
    <dc:date>2021-07-20T17:37:41.364467</dc:date>
    <dc:format>image/svg+xml</dc:format>
    <dc:creator>
     <cc:Agent>
      <dc:title>Matplotlib v3.4.2, https://matplotlib.org/</dc:title>
     </cc:Agent>
    </dc:creator>
   </cc:Work>
  </rdf:RDF>
 </metadata>
 <defs>
  <style type="text/css">*{stroke-linecap:butt;stroke-linejoin:round;}</style>
 </defs>
 <g id="figure_1">
  <g id="patch_1">
   <path d="M 0 345.6 
L 460.8 345.6 
L 460.8 0 
L 0 0 
z
" style="fill:#ffffff;"/>
  </g>
  <g id="axes_1">
   <g id="patch_2">
    <path d="M 57.6 307.584 
L 414.72 307.584 
L 414.72 41.472 
L 57.6 41.472 
z
" style="fill:#ffffff;"/>
   </g>
   <g id="matplotlib.axis_1">
    <g id="xtick_1">
     <g id="line2d_1">
      <path clip-path="url(#pbb02de92c9)" d="M 86.571328 307.584 
L 86.571328 41.472 
" style="fill:none;stroke:#b0b0b0;stroke-linecap:square;stroke-width:0.8;"/>
     </g>
     <g id="line2d_2">
      <defs>
       <path d="M 0 0 
L 0 3.5 
" id="m42574b59ea" style="stroke:#000000;stroke-width:0.8;"/>
      </defs>
      <g>
       <use style="stroke:#000000;stroke-width:0.8;" x="86.571328" xlink:href="#m42574b59ea" y="307.584"/>
      </g>
     </g>
     <g id="text_1">
      <!-- 200 -->
      <g transform="translate(77.027578 322.182437)scale(0.1 -0.1)">
       <defs>
        <path d="M 1228 531 
L 3431 531 
L 3431 0 
L 469 0 
L 469 531 
Q 828 903 1448 1529 
Q 2069 2156 2228 2338 
Q 2531 2678 2651 2914 
Q 2772 3150 2772 3378 
Q 2772 3750 2511 3984 
Q 2250 4219 1831 4219 
Q 1534 4219 1204 4116 
Q 875 4013 500 3803 
L 500 4441 
Q 881 4594 1212 4672 
Q 1544 4750 1819 4750 
Q 2544 4750 2975 4387 
Q 3406 4025 3406 3419 
Q 3406 3131 3298 2873 
Q 3191 2616 2906 2266 
Q 2828 2175 2409 1742 
Q 1991 1309 1228 531 
z
" id="DejaVuSans-32" transform="scale(0.015625)"/>
        <path d="M 2034 4250 
Q 1547 4250 1301 3770 
Q 1056 3291 1056 2328 
Q 1056 1369 1301 889 
Q 1547 409 2034 409 
Q 2525 409 2770 889 
Q 3016 1369 3016 2328 
Q 3016 3291 2770 3770 
Q 2525 4250 2034 4250 
z
M 2034 4750 
Q 2819 4750 3233 4129 
Q 3647 3509 3647 2328 
Q 3647 1150 3233 529 
Q 2819 -91 2034 -91 
Q 1250 -91 836 529 
Q 422 1150 422 2328 
Q 422 3509 836 4129 
Q 1250 4750 2034 4750 
z
" id="DejaVuSans-30" transform="scale(0.015625)"/>
       </defs>
       <use xlink:href="#DejaVuSans-32"/>
       <use x="63.623047" xlink:href="#DejaVuSans-30"/>
       <use x="127.246094" xlink:href="#DejaVuSans-30"/>
      </g>
     </g>
    </g>
    <g id="xtick_2">
     <g id="line2d_3">
      <path clip-path="url(#pbb02de92c9)" d="M 131.740533 307.584 
L 131.740533 41.472 
" style="fill:none;stroke:#b0b0b0;stroke-linecap:square;stroke-width:0.8;"/>
     </g>
     <g id="line2d_4">
      <g>
       <use style="stroke:#000000;stroke-width:0.8;" x="131.740533" xlink:href="#m42574b59ea" y="307.584"/>
      </g>
     </g>
     <g id="text_2">
      <!-- 400 -->
      <g transform="translate(122.196783 322.182437)scale(0.1 -0.1)">
       <defs>
        <path d="M 2419 4116 
L 825 1625 
L 2419 1625 
L 2419 4116 
z
M 2253 4666 
L 3047 4666 
L 3047 1625 
L 3713 1625 
L 3713 1100 
L 3047 1100 
L 3047 0 
L 2419 0 
L 2419 1100 
L 313 1100 
L 313 1709 
L 2253 4666 
z
" id="DejaVuSans-34" transform="scale(0.015625)"/>
       </defs>
       <use xlink:href="#DejaVuSans-34"/>
       <use x="63.623047" xlink:href="#DejaVuSans-30"/>
       <use x="127.246094" xlink:href="#DejaVuSans-30"/>
      </g>
     </g>
    </g>
    <g id="xtick_3">
     <g id="line2d_5">
      <path clip-path="url(#pbb02de92c9)" d="M 176.909738 307.584 
L 176.909738 41.472 
" style="fill:none;stroke:#b0b0b0;stroke-linecap:square;stroke-width:0.8;"/>
     </g>
     <g id="line2d_6">
      <g>
       <use style="stroke:#000000;stroke-width:0.8;" x="176.909738" xlink:href="#m42574b59ea" y="307.584"/>
      </g>
     </g>
     <g id="text_3">
      <!-- 600 -->
      <g transform="translate(167.365988 322.182437)scale(0.1 -0.1)">
       <defs>
        <path d="M 2113 2584 
Q 1688 2584 1439 2293 
Q 1191 2003 1191 1497 
Q 1191 994 1439 701 
Q 1688 409 2113 409 
Q 2538 409 2786 701 
Q 3034 994 3034 1497 
Q 3034 2003 2786 2293 
Q 2538 2584 2113 2584 
z
M 3366 4563 
L 3366 3988 
Q 3128 4100 2886 4159 
Q 2644 4219 2406 4219 
Q 1781 4219 1451 3797 
Q 1122 3375 1075 2522 
Q 1259 2794 1537 2939 
Q 1816 3084 2150 3084 
Q 2853 3084 3261 2657 
Q 3669 2231 3669 1497 
Q 3669 778 3244 343 
Q 2819 -91 2113 -91 
Q 1303 -91 875 529 
Q 447 1150 447 2328 
Q 447 3434 972 4092 
Q 1497 4750 2381 4750 
Q 2619 4750 2861 4703 
Q 3103 4656 3366 4563 
z
" id="DejaVuSans-36" transform="scale(0.015625)"/>
       </defs>
       <use xlink:href="#DejaVuSans-36"/>
       <use x="63.623047" xlink:href="#DejaVuSans-30"/>
       <use x="127.246094" xlink:href="#DejaVuSans-30"/>
      </g>
     </g>
    </g>
    <g id="xtick_4">
     <g id="line2d_7">
      <path clip-path="url(#pbb02de92c9)" d="M 222.078943 307.584 
L 222.078943 41.472 
" style="fill:none;stroke:#b0b0b0;stroke-linecap:square;stroke-width:0.8;"/>
     </g>
     <g id="line2d_8">
      <g>
       <use style="stroke:#000000;stroke-width:0.8;" x="222.078943" xlink:href="#m42574b59ea" y="307.584"/>
      </g>
     </g>
     <g id="text_4">
      <!-- 800 -->
      <g transform="translate(212.535193 322.182437)scale(0.1 -0.1)">
       <defs>
        <path d="M 2034 2216 
Q 1584 2216 1326 1975 
Q 1069 1734 1069 1313 
Q 1069 891 1326 650 
Q 1584 409 2034 409 
Q 2484 409 2743 651 
Q 3003 894 3003 1313 
Q 3003 1734 2745 1975 
Q 2488 2216 2034 2216 
z
M 1403 2484 
Q 997 2584 770 2862 
Q 544 3141 544 3541 
Q 544 4100 942 4425 
Q 1341 4750 2034 4750 
Q 2731 4750 3128 4425 
Q 3525 4100 3525 3541 
Q 3525 3141 3298 2862 
Q 3072 2584 2669 2484 
Q 3125 2378 3379 2068 
Q 3634 1759 3634 1313 
Q 3634 634 3220 271 
Q 2806 -91 2034 -91 
Q 1263 -91 848 271 
Q 434 634 434 1313 
Q 434 1759 690 2068 
Q 947 2378 1403 2484 
z
M 1172 3481 
Q 1172 3119 1398 2916 
Q 1625 2713 2034 2713 
Q 2441 2713 2670 2916 
Q 2900 3119 2900 3481 
Q 2900 3844 2670 4047 
Q 2441 4250 2034 4250 
Q 1625 4250 1398 4047 
Q 1172 3844 1172 3481 
z
" id="DejaVuSans-38" transform="scale(0.015625)"/>
       </defs>
       <use xlink:href="#DejaVuSans-38"/>
       <use x="63.623047" xlink:href="#DejaVuSans-30"/>
       <use x="127.246094" xlink:href="#DejaVuSans-30"/>
      </g>
     </g>
    </g>
    <g id="xtick_5">
     <g id="line2d_9">
      <path clip-path="url(#pbb02de92c9)" d="M 267.248148 307.584 
L 267.248148 41.472 
" style="fill:none;stroke:#b0b0b0;stroke-linecap:square;stroke-width:0.8;"/>
     </g>
     <g id="line2d_10">
      <g>
       <use style="stroke:#000000;stroke-width:0.8;" x="267.248148" xlink:href="#m42574b59ea" y="307.584"/>
      </g>
     </g>
     <g id="text_5">
      <!-- 1000 -->
      <g transform="translate(254.523148 322.182437)scale(0.1 -0.1)">
       <defs>
        <path d="M 794 531 
L 1825 531 
L 1825 4091 
L 703 3866 
L 703 4441 
L 1819 4666 
L 2450 4666 
L 2450 531 
L 3481 531 
L 3481 0 
L 794 0 
L 794 531 
z
" id="DejaVuSans-31" transform="scale(0.015625)"/>
       </defs>
       <use xlink:href="#DejaVuSans-31"/>
       <use x="63.623047" xlink:href="#DejaVuSans-30"/>
       <use x="127.246094" xlink:href="#DejaVuSans-30"/>
       <use x="190.869141" xlink:href="#DejaVuSans-30"/>
      </g>
     </g>
    </g>
    <g id="xtick_6">
     <g id="line2d_11">
      <path clip-path="url(#pbb02de92c9)" d="M 312.417353 307.584 
L 312.417353 41.472 
" style="fill:none;stroke:#b0b0b0;stroke-linecap:square;stroke-width:0.8;"/>
     </g>
     <g id="line2d_12">
      <g>
       <use style="stroke:#000000;stroke-width:0.8;" x="312.417353" xlink:href="#m42574b59ea" y="307.584"/>
      </g>
     </g>
     <g id="text_6">
      <!-- 1200 -->
      <g transform="translate(299.692353 322.182437)scale(0.1 -0.1)">
       <use xlink:href="#DejaVuSans-31"/>
       <use x="63.623047" xlink:href="#DejaVuSans-32"/>
       <use x="127.246094" xlink:href="#DejaVuSans-30"/>
       <use x="190.869141" xlink:href="#DejaVuSans-30"/>
      </g>
     </g>
    </g>
    <g id="xtick_7">
     <g id="line2d_13">
      <path clip-path="url(#pbb02de92c9)" d="M 357.586558 307.584 
L 357.586558 41.472 
" style="fill:none;stroke:#b0b0b0;stroke-linecap:square;stroke-width:0.8;"/>
     </g>
     <g id="line2d_14">
      <g>
       <use style="stroke:#000000;stroke-width:0.8;" x="357.586558" xlink:href="#m42574b59ea" y="307.584"/>
      </g>
     </g>
     <g id="text_7">
      <!-- 1400 -->
      <g transform="translate(344.861558 322.182437)scale(0.1 -0.1)">
       <use xlink:href="#DejaVuSans-31"/>
       <use x="63.623047" xlink:href="#DejaVuSans-34"/>
       <use x="127.246094" xlink:href="#DejaVuSans-30"/>
       <use x="190.869141" xlink:href="#DejaVuSans-30"/>
      </g>
     </g>
    </g>
    <g id="xtick_8">
     <g id="line2d_15">
      <path clip-path="url(#pbb02de92c9)" d="M 402.755763 307.584 
L 402.755763 41.472 
" style="fill:none;stroke:#b0b0b0;stroke-linecap:square;stroke-width:0.8;"/>
     </g>
     <g id="line2d_16">
      <g>
       <use style="stroke:#000000;stroke-width:0.8;" x="402.755763" xlink:href="#m42574b59ea" y="307.584"/>
      </g>
     </g>
     <g id="text_8">
      <!-- 1600 -->
      <g transform="translate(390.030763 322.182437)scale(0.1 -0.1)">
       <use xlink:href="#DejaVuSans-31"/>
       <use x="63.623047" xlink:href="#DejaVuSans-36"/>
       <use x="127.246094" xlink:href="#DejaVuSans-30"/>
       <use x="190.869141" xlink:href="#DejaVuSans-30"/>
      </g>
     </g>
    </g>
    <g id="text_9">
     <!-- Tempo de Detecção [ms] -->
     <g transform="translate(173.795937 336.030875)scale(0.1 -0.1)">
      <defs>
       <path d="M -19 4666 
L 3928 4666 
L 3928 4134 
L 2272 4134 
L 2272 0 
L 1638 0 
L 1638 4134 
L -19 4134 
L -19 4666 
z
" id="DejaVuSans-54" transform="scale(0.015625)"/>
       <path d="M 3597 1894 
L 3597 1613 
L 953 1613 
Q 991 1019 1311 708 
Q 1631 397 2203 397 
Q 2534 397 2845 478 
Q 3156 559 3463 722 
L 3463 178 
Q 3153 47 2828 -22 
Q 2503 -91 2169 -91 
Q 1331 -91 842 396 
Q 353 884 353 1716 
Q 353 2575 817 3079 
Q 1281 3584 2069 3584 
Q 2775 3584 3186 3129 
Q 3597 2675 3597 1894 
z
M 3022 2063 
Q 3016 2534 2758 2815 
Q 2500 3097 2075 3097 
Q 1594 3097 1305 2825 
Q 1016 2553 972 2059 
L 3022 2063 
z
" id="DejaVuSans-65" transform="scale(0.015625)"/>
       <path d="M 3328 2828 
Q 3544 3216 3844 3400 
Q 4144 3584 4550 3584 
Q 5097 3584 5394 3201 
Q 5691 2819 5691 2113 
L 5691 0 
L 5113 0 
L 5113 2094 
Q 5113 2597 4934 2840 
Q 4756 3084 4391 3084 
Q 3944 3084 3684 2787 
Q 3425 2491 3425 1978 
L 3425 0 
L 2847 0 
L 2847 2094 
Q 2847 2600 2669 2842 
Q 2491 3084 2119 3084 
Q 1678 3084 1418 2786 
Q 1159 2488 1159 1978 
L 1159 0 
L 581 0 
L 581 3500 
L 1159 3500 
L 1159 2956 
Q 1356 3278 1631 3431 
Q 1906 3584 2284 3584 
Q 2666 3584 2933 3390 
Q 3200 3197 3328 2828 
z
" id="DejaVuSans-6d" transform="scale(0.015625)"/>
       <path d="M 1159 525 
L 1159 -1331 
L 581 -1331 
L 581 3500 
L 1159 3500 
L 1159 2969 
Q 1341 3281 1617 3432 
Q 1894 3584 2278 3584 
Q 2916 3584 3314 3078 
Q 3713 2572 3713 1747 
Q 3713 922 3314 415 
Q 2916 -91 2278 -91 
Q 1894 -91 1617 61 
Q 1341 213 1159 525 
z
M 3116 1747 
Q 3116 2381 2855 2742 
Q 2594 3103 2138 3103 
Q 1681 3103 1420 2742 
Q 1159 2381 1159 1747 
Q 1159 1113 1420 752 
Q 1681 391 2138 391 
Q 2594 391 2855 752 
Q 3116 1113 3116 1747 
z
" id="DejaVuSans-70" transform="scale(0.015625)"/>
       <path d="M 1959 3097 
Q 1497 3097 1228 2736 
Q 959 2375 959 1747 
Q 959 1119 1226 758 
Q 1494 397 1959 397 
Q 2419 397 2687 759 
Q 2956 1122 2956 1747 
Q 2956 2369 2687 2733 
Q 2419 3097 1959 3097 
z
M 1959 3584 
Q 2709 3584 3137 3096 
Q 3566 2609 3566 1747 
Q 3566 888 3137 398 
Q 2709 -91 1959 -91 
Q 1206 -91 779 398 
Q 353 888 353 1747 
Q 353 2609 779 3096 
Q 1206 3584 1959 3584 
z
" id="DejaVuSans-6f" transform="scale(0.015625)"/>
       <path id="DejaVuSans-20" transform="scale(0.015625)"/>
       <path d="M 2906 2969 
L 2906 4863 
L 3481 4863 
L 3481 0 
L 2906 0 
L 2906 525 
Q 2725 213 2448 61 
Q 2172 -91 1784 -91 
Q 1150 -91 751 415 
Q 353 922 353 1747 
Q 353 2572 751 3078 
Q 1150 3584 1784 3584 
Q 2172 3584 2448 3432 
Q 2725 3281 2906 2969 
z
M 947 1747 
Q 947 1113 1208 752 
Q 1469 391 1925 391 
Q 2381 391 2643 752 
Q 2906 1113 2906 1747 
Q 2906 2381 2643 2742 
Q 2381 3103 1925 3103 
Q 1469 3103 1208 2742 
Q 947 2381 947 1747 
z
" id="DejaVuSans-64" transform="scale(0.015625)"/>
       <path d="M 1259 4147 
L 1259 519 
L 2022 519 
Q 2988 519 3436 956 
Q 3884 1394 3884 2338 
Q 3884 3275 3436 3711 
Q 2988 4147 2022 4147 
L 1259 4147 
z
M 628 4666 
L 1925 4666 
Q 3281 4666 3915 4102 
Q 4550 3538 4550 2338 
Q 4550 1131 3912 565 
Q 3275 0 1925 0 
L 628 0 
L 628 4666 
z
" id="DejaVuSans-44" transform="scale(0.015625)"/>
       <path d="M 1172 4494 
L 1172 3500 
L 2356 3500 
L 2356 3053 
L 1172 3053 
L 1172 1153 
Q 1172 725 1289 603 
Q 1406 481 1766 481 
L 2356 481 
L 2356 0 
L 1766 0 
Q 1100 0 847 248 
Q 594 497 594 1153 
L 594 3053 
L 172 3053 
L 172 3500 
L 594 3500 
L 594 4494 
L 1172 4494 
z
" id="DejaVuSans-74" transform="scale(0.015625)"/>
       <path d="M 3122 3366 
L 3122 2828 
Q 2878 2963 2633 3030 
Q 2388 3097 2138 3097 
Q 1578 3097 1268 2742 
Q 959 2388 959 1747 
Q 959 1106 1268 751 
Q 1578 397 2138 397 
Q 2388 397 2633 464 
Q 2878 531 3122 666 
L 3122 134 
Q 2881 22 2623 -34 
Q 2366 -91 2075 -91 
Q 1284 -91 818 406 
Q 353 903 353 1747 
Q 353 2603 823 3093 
Q 1294 3584 2113 3584 
Q 2378 3584 2631 3529 
Q 2884 3475 3122 3366 
z
" id="DejaVuSans-63" transform="scale(0.015625)"/>
       <path d="M 3122 3366 
L 3122 2828 
Q 2878 2963 2633 3030 
Q 2388 3097 2138 3097 
Q 1578 3097 1268 2742 
Q 959 2388 959 1747 
Q 959 1106 1268 751 
Q 1578 397 2138 397 
Q 2388 397 2633 464 
Q 2878 531 3122 666 
L 3122 134 
Q 2881 22 2623 -34 
Q 2366 -91 2075 -91 
Q 1284 -91 818 406 
Q 353 903 353 1747 
Q 353 2603 823 3093 
Q 1294 3584 2113 3584 
Q 2378 3584 2631 3529 
Q 2884 3475 3122 3366 
z
M 2311 0 
Q 2482 -194 2566 -358 
Q 2651 -522 2651 -672 
Q 2651 -950 2463 -1092 
Q 2276 -1234 1907 -1234 
Q 1764 -1234 1628 -1215 
Q 1492 -1197 1357 -1159 
L 1357 -750 
Q 1464 -803 1579 -826 
Q 1695 -850 1842 -850 
Q 2026 -850 2120 -775 
Q 2214 -700 2214 -556 
Q 2214 -463 2146 -327 
Q 2079 -191 1939 0 
L 2311 0 
z
" id="DejaVuSans-e7" transform="scale(0.015625)"/>
       <path d="M 2194 1759 
Q 1497 1759 1228 1600 
Q 959 1441 959 1056 
Q 959 750 1161 570 
Q 1363 391 1709 391 
Q 2188 391 2477 730 
Q 2766 1069 2766 1631 
L 2766 1759 
L 2194 1759 
z
M 3341 1997 
L 3341 0 
L 2766 0 
L 2766 531 
Q 2569 213 2275 61 
Q 1981 -91 1556 -91 
Q 1019 -91 701 211 
Q 384 513 384 1019 
Q 384 1609 779 1909 
Q 1175 2209 1959 2209 
L 2766 2209 
L 2766 2266 
Q 2766 2663 2505 2880 
Q 2244 3097 1772 3097 
Q 1472 3097 1187 3025 
Q 903 2953 641 2809 
L 641 3341 
Q 956 3463 1253 3523 
Q 1550 3584 1831 3584 
Q 2591 3584 2966 3190 
Q 3341 2797 3341 1997 
z
M 1844 4281 
L 1665 4453 
Q 1597 4516 1545 4545 
Q 1494 4575 1453 4575 
Q 1334 4575 1278 4461 
Q 1222 4347 1215 4091 
L 825 4091 
Q 831 4513 990 4742 
Q 1150 4972 1434 4972 
Q 1553 4972 1653 4928 
Q 1753 4884 1869 4781 
L 2047 4609 
Q 2115 4547 2167 4517 
Q 2219 4488 2259 4488 
Q 2378 4488 2434 4602 
Q 2490 4716 2497 4972 
L 2887 4972 
Q 2881 4550 2721 4320 
Q 2562 4091 2278 4091 
Q 2159 4091 2059 4134 
Q 1959 4178 1844 4281 
z
" id="DejaVuSans-e3" transform="scale(0.015625)"/>
       <path d="M 550 4863 
L 1875 4863 
L 1875 4416 
L 1125 4416 
L 1125 -397 
L 1875 -397 
L 1875 -844 
L 550 -844 
L 550 4863 
z
" id="DejaVuSans-5b" transform="scale(0.015625)"/>
       <path d="M 2834 3397 
L 2834 2853 
Q 2591 2978 2328 3040 
Q 2066 3103 1784 3103 
Q 1356 3103 1142 2972 
Q 928 2841 928 2578 
Q 928 2378 1081 2264 
Q 1234 2150 1697 2047 
L 1894 2003 
Q 2506 1872 2764 1633 
Q 3022 1394 3022 966 
Q 3022 478 2636 193 
Q 2250 -91 1575 -91 
Q 1294 -91 989 -36 
Q 684 19 347 128 
L 347 722 
Q 666 556 975 473 
Q 1284 391 1588 391 
Q 1994 391 2212 530 
Q 2431 669 2431 922 
Q 2431 1156 2273 1281 
Q 2116 1406 1581 1522 
L 1381 1569 
Q 847 1681 609 1914 
Q 372 2147 372 2553 
Q 372 3047 722 3315 
Q 1072 3584 1716 3584 
Q 2034 3584 2315 3537 
Q 2597 3491 2834 3397 
z
" id="DejaVuSans-73" transform="scale(0.015625)"/>
       <path d="M 1947 4863 
L 1947 -844 
L 622 -844 
L 622 -397 
L 1369 -397 
L 1369 4416 
L 622 4416 
L 622 4863 
L 1947 4863 
z
" id="DejaVuSans-5d" transform="scale(0.015625)"/>
      </defs>
      <use xlink:href="#DejaVuSans-54"/>
      <use x="44.083984" xlink:href="#DejaVuSans-65"/>
      <use x="105.607422" xlink:href="#DejaVuSans-6d"/>
      <use x="203.019531" xlink:href="#DejaVuSans-70"/>
      <use x="266.496094" xlink:href="#DejaVuSans-6f"/>
      <use x="327.677734" xlink:href="#DejaVuSans-20"/>
      <use x="359.464844" xlink:href="#DejaVuSans-64"/>
      <use x="422.941406" xlink:href="#DejaVuSans-65"/>
      <use x="484.464844" xlink:href="#DejaVuSans-20"/>
      <use x="516.251953" xlink:href="#DejaVuSans-44"/>
      <use x="593.253906" xlink:href="#DejaVuSans-65"/>
      <use x="654.777344" xlink:href="#DejaVuSans-74"/>
      <use x="693.986328" xlink:href="#DejaVuSans-65"/>
      <use x="755.509766" xlink:href="#DejaVuSans-63"/>
      <use x="810.490234" xlink:href="#DejaVuSans-e7"/>
      <use x="865.470703" xlink:href="#DejaVuSans-e3"/>
      <use x="926.75" xlink:href="#DejaVuSans-6f"/>
      <use x="987.931641" xlink:href="#DejaVuSans-20"/>
      <use x="1019.71875" xlink:href="#DejaVuSans-5b"/>
      <use x="1058.732422" xlink:href="#DejaVuSans-6d"/>
      <use x="1156.144531" xlink:href="#DejaVuSans-73"/>
      <use x="1208.244141" xlink:href="#DejaVuSans-5d"/>
     </g>
    </g>
   </g>
   <g id="matplotlib.axis_2">
    <g id="ytick_1">
     <g id="line2d_17">
      <path clip-path="url(#pbb02de92c9)" d="M 57.6 281.708347 
L 414.72 281.708347 
" style="fill:none;stroke:#b0b0b0;stroke-linecap:square;stroke-width:0.8;"/>
     </g>
     <g id="line2d_18">
      <defs>
       <path d="M 0 0 
L -3.5 0 
" id="m97674d5e9a" style="stroke:#000000;stroke-width:0.8;"/>
      </defs>
      <g>
       <use style="stroke:#000000;stroke-width:0.8;" x="57.6" xlink:href="#m97674d5e9a" y="281.708347"/>
      </g>
     </g>
     <g id="text_10">
      <!-- −1000 -->
      <g transform="translate(16.770313 285.507566)scale(0.1 -0.1)">
       <defs>
        <path d="M 678 2272 
L 4684 2272 
L 4684 1741 
L 678 1741 
L 678 2272 
z
" id="DejaVuSans-2212" transform="scale(0.015625)"/>
       </defs>
       <use xlink:href="#DejaVuSans-2212"/>
       <use x="83.789062" xlink:href="#DejaVuSans-31"/>
       <use x="147.412109" xlink:href="#DejaVuSans-30"/>
       <use x="211.035156" xlink:href="#DejaVuSans-30"/>
       <use x="274.658203" xlink:href="#DejaVuSans-30"/>
      </g>
     </g>
    </g>
    <g id="ytick_2">
     <g id="line2d_19">
      <path clip-path="url(#pbb02de92c9)" d="M 57.6 236.126575 
L 414.72 236.126575 
" style="fill:none;stroke:#b0b0b0;stroke-linecap:square;stroke-width:0.8;"/>
     </g>
     <g id="line2d_20">
      <g>
       <use style="stroke:#000000;stroke-width:0.8;" x="57.6" xlink:href="#m97674d5e9a" y="236.126575"/>
      </g>
     </g>
     <g id="text_11">
      <!-- −800 -->
      <g transform="translate(23.132812 239.925794)scale(0.1 -0.1)">
       <use xlink:href="#DejaVuSans-2212"/>
       <use x="83.789062" xlink:href="#DejaVuSans-38"/>
       <use x="147.412109" xlink:href="#DejaVuSans-30"/>
       <use x="211.035156" xlink:href="#DejaVuSans-30"/>
      </g>
     </g>
    </g>
    <g id="ytick_3">
     <g id="line2d_21">
      <path clip-path="url(#pbb02de92c9)" d="M 57.6 190.544803 
L 414.72 190.544803 
" style="fill:none;stroke:#b0b0b0;stroke-linecap:square;stroke-width:0.8;"/>
     </g>
     <g id="line2d_22">
      <g>
       <use style="stroke:#000000;stroke-width:0.8;" x="57.6" xlink:href="#m97674d5e9a" y="190.544803"/>
      </g>
     </g>
     <g id="text_12">
      <!-- −600 -->
      <g transform="translate(23.132812 194.344022)scale(0.1 -0.1)">
       <use xlink:href="#DejaVuSans-2212"/>
       <use x="83.789062" xlink:href="#DejaVuSans-36"/>
       <use x="147.412109" xlink:href="#DejaVuSans-30"/>
       <use x="211.035156" xlink:href="#DejaVuSans-30"/>
      </g>
     </g>
    </g>
    <g id="ytick_4">
     <g id="line2d_23">
      <path clip-path="url(#pbb02de92c9)" d="M 57.6 144.963031 
L 414.72 144.963031 
" style="fill:none;stroke:#b0b0b0;stroke-linecap:square;stroke-width:0.8;"/>
     </g>
     <g id="line2d_24">
      <g>
       <use style="stroke:#000000;stroke-width:0.8;" x="57.6" xlink:href="#m97674d5e9a" y="144.963031"/>
      </g>
     </g>
     <g id="text_13">
      <!-- −400 -->
      <g transform="translate(23.132812 148.76225)scale(0.1 -0.1)">
       <use xlink:href="#DejaVuSans-2212"/>
       <use x="83.789062" xlink:href="#DejaVuSans-34"/>
       <use x="147.412109" xlink:href="#DejaVuSans-30"/>
       <use x="211.035156" xlink:href="#DejaVuSans-30"/>
      </g>
     </g>
    </g>
    <g id="ytick_5">
     <g id="line2d_25">
      <path clip-path="url(#pbb02de92c9)" d="M 57.6 99.381259 
L 414.72 99.381259 
" style="fill:none;stroke:#b0b0b0;stroke-linecap:square;stroke-width:0.8;"/>
     </g>
     <g id="line2d_26">
      <g>
       <use style="stroke:#000000;stroke-width:0.8;" x="57.6" xlink:href="#m97674d5e9a" y="99.381259"/>
      </g>
     </g>
     <g id="text_14">
      <!-- −200 -->
      <g transform="translate(23.132812 103.180478)scale(0.1 -0.1)">
       <use xlink:href="#DejaVuSans-2212"/>
       <use x="83.789062" xlink:href="#DejaVuSans-32"/>
       <use x="147.412109" xlink:href="#DejaVuSans-30"/>
       <use x="211.035156" xlink:href="#DejaVuSans-30"/>
      </g>
     </g>
    </g>
    <g id="ytick_6">
     <g id="line2d_27">
      <path clip-path="url(#pbb02de92c9)" d="M 57.6 53.799487 
L 414.72 53.799487 
" style="fill:none;stroke:#b0b0b0;stroke-linecap:square;stroke-width:0.8;"/>
     </g>
     <g id="line2d_28">
      <g>
       <use style="stroke:#000000;stroke-width:0.8;" x="57.6" xlink:href="#m97674d5e9a" y="53.799487"/>
      </g>
     </g>
     <g id="text_15">
      <!-- 0 -->
      <g transform="translate(44.2375 57.598706)scale(0.1 -0.1)">
       <use xlink:href="#DejaVuSans-30"/>
      </g>
     </g>
    </g>
    <g id="text_16">
     <!-- Desbalanço de Potência Ativa [pu] -->
     <g transform="translate(10.690625 260.585812)rotate(-90)scale(0.1 -0.1)">
      <defs>
       <path d="M 3116 1747 
Q 3116 2381 2855 2742 
Q 2594 3103 2138 3103 
Q 1681 3103 1420 2742 
Q 1159 2381 1159 1747 
Q 1159 1113 1420 752 
Q 1681 391 2138 391 
Q 2594 391 2855 752 
Q 3116 1113 3116 1747 
z
M 1159 2969 
Q 1341 3281 1617 3432 
Q 1894 3584 2278 3584 
Q 2916 3584 3314 3078 
Q 3713 2572 3713 1747 
Q 3713 922 3314 415 
Q 2916 -91 2278 -91 
Q 1894 -91 1617 61 
Q 1341 213 1159 525 
L 1159 0 
L 581 0 
L 581 4863 
L 1159 4863 
L 1159 2969 
z
" id="DejaVuSans-62" transform="scale(0.015625)"/>
       <path d="M 2194 1759 
Q 1497 1759 1228 1600 
Q 959 1441 959 1056 
Q 959 750 1161 570 
Q 1363 391 1709 391 
Q 2188 391 2477 730 
Q 2766 1069 2766 1631 
L 2766 1759 
L 2194 1759 
z
M 3341 1997 
L 3341 0 
L 2766 0 
L 2766 531 
Q 2569 213 2275 61 
Q 1981 -91 1556 -91 
Q 1019 -91 701 211 
Q 384 513 384 1019 
Q 384 1609 779 1909 
Q 1175 2209 1959 2209 
L 2766 2209 
L 2766 2266 
Q 2766 2663 2505 2880 
Q 2244 3097 1772 3097 
Q 1472 3097 1187 3025 
Q 903 2953 641 2809 
L 641 3341 
Q 956 3463 1253 3523 
Q 1550 3584 1831 3584 
Q 2591 3584 2966 3190 
Q 3341 2797 3341 1997 
z
" id="DejaVuSans-61" transform="scale(0.015625)"/>
       <path d="M 603 4863 
L 1178 4863 
L 1178 0 
L 603 0 
L 603 4863 
z
" id="DejaVuSans-6c" transform="scale(0.015625)"/>
       <path d="M 3513 2113 
L 3513 0 
L 2938 0 
L 2938 2094 
Q 2938 2591 2744 2837 
Q 2550 3084 2163 3084 
Q 1697 3084 1428 2787 
Q 1159 2491 1159 1978 
L 1159 0 
L 581 0 
L 581 3500 
L 1159 3500 
L 1159 2956 
Q 1366 3272 1645 3428 
Q 1925 3584 2291 3584 
Q 2894 3584 3203 3211 
Q 3513 2838 3513 2113 
z
" id="DejaVuSans-6e" transform="scale(0.015625)"/>
       <path d="M 1259 4147 
L 1259 2394 
L 2053 2394 
Q 2494 2394 2734 2622 
Q 2975 2850 2975 3272 
Q 2975 3691 2734 3919 
Q 2494 4147 2053 4147 
L 1259 4147 
z
M 628 4666 
L 2053 4666 
Q 2838 4666 3239 4311 
Q 3641 3956 3641 3272 
Q 3641 2581 3239 2228 
Q 2838 1875 2053 1875 
L 1259 1875 
L 1259 0 
L 628 0 
L 628 4666 
z
" id="DejaVuSans-50" transform="scale(0.015625)"/>
       <path d="M 3597 1894 
L 3597 1613 
L 953 1613 
Q 991 1019 1311 708 
Q 1631 397 2203 397 
Q 2534 397 2845 478 
Q 3156 559 3463 722 
L 3463 178 
Q 3153 47 2828 -22 
Q 2503 -91 2169 -91 
Q 1331 -91 842 396 
Q 353 884 353 1716 
Q 353 2575 817 3079 
Q 1281 3584 2069 3584 
Q 2775 3584 3186 3129 
Q 3597 2675 3597 1894 
z
M 3022 2063 
Q 3016 2534 2758 2815 
Q 2500 3097 2075 3097 
Q 1594 3097 1305 2825 
Q 1016 2553 972 2059 
L 3022 2063 
z
M 1801 5119 
L 2263 5119 
L 3029 3944 
L 2595 3944 
L 2032 4709 
L 1470 3944 
L 1035 3944 
L 1801 5119 
z
" id="DejaVuSans-ea" transform="scale(0.015625)"/>
       <path d="M 603 3500 
L 1178 3500 
L 1178 0 
L 603 0 
L 603 3500 
z
M 603 4863 
L 1178 4863 
L 1178 4134 
L 603 4134 
L 603 4863 
z
" id="DejaVuSans-69" transform="scale(0.015625)"/>
       <path d="M 2188 4044 
L 1331 1722 
L 3047 1722 
L 2188 4044 
z
M 1831 4666 
L 2547 4666 
L 4325 0 
L 3669 0 
L 3244 1197 
L 1141 1197 
L 716 0 
L 50 0 
L 1831 4666 
z
" id="DejaVuSans-41" transform="scale(0.015625)"/>
       <path d="M 191 3500 
L 800 3500 
L 1894 563 
L 2988 3500 
L 3597 3500 
L 2284 0 
L 1503 0 
L 191 3500 
z
" id="DejaVuSans-76" transform="scale(0.015625)"/>
       <path d="M 544 1381 
L 544 3500 
L 1119 3500 
L 1119 1403 
Q 1119 906 1312 657 
Q 1506 409 1894 409 
Q 2359 409 2629 706 
Q 2900 1003 2900 1516 
L 2900 3500 
L 3475 3500 
L 3475 0 
L 2900 0 
L 2900 538 
Q 2691 219 2414 64 
Q 2138 -91 1772 -91 
Q 1169 -91 856 284 
Q 544 659 544 1381 
z
M 1991 3584 
L 1991 3584 
z
" id="DejaVuSans-75" transform="scale(0.015625)"/>
      </defs>
      <use xlink:href="#DejaVuSans-44"/>
      <use x="77.001953" xlink:href="#DejaVuSans-65"/>
      <use x="138.525391" xlink:href="#DejaVuSans-73"/>
      <use x="190.625" xlink:href="#DejaVuSans-62"/>
      <use x="254.101562" xlink:href="#DejaVuSans-61"/>
      <use x="315.380859" xlink:href="#DejaVuSans-6c"/>
      <use x="343.164062" xlink:href="#DejaVuSans-61"/>
      <use x="404.443359" xlink:href="#DejaVuSans-6e"/>
      <use x="467.822266" xlink:href="#DejaVuSans-e7"/>
      <use x="522.802734" xlink:href="#DejaVuSans-6f"/>
      <use x="583.984375" xlink:href="#DejaVuSans-20"/>
      <use x="615.771484" xlink:href="#DejaVuSans-64"/>
      <use x="679.248047" xlink:href="#DejaVuSans-65"/>
      <use x="740.771484" xlink:href="#DejaVuSans-20"/>
      <use x="772.558594" xlink:href="#DejaVuSans-50"/>
      <use x="829.236328" xlink:href="#DejaVuSans-6f"/>
      <use x="890.417969" xlink:href="#DejaVuSans-74"/>
      <use x="929.626953" xlink:href="#DejaVuSans-ea"/>
      <use x="991.150391" xlink:href="#DejaVuSans-6e"/>
      <use x="1054.529297" xlink:href="#DejaVuSans-63"/>
      <use x="1109.509766" xlink:href="#DejaVuSans-69"/>
      <use x="1137.292969" xlink:href="#DejaVuSans-61"/>
      <use x="1198.572266" xlink:href="#DejaVuSans-20"/>
      <use x="1230.359375" xlink:href="#DejaVuSans-41"/>
      <use x="1297.017578" xlink:href="#DejaVuSans-74"/>
      <use x="1336.226562" xlink:href="#DejaVuSans-69"/>
      <use x="1364.009766" xlink:href="#DejaVuSans-76"/>
      <use x="1423.189453" xlink:href="#DejaVuSans-61"/>
      <use x="1484.46875" xlink:href="#DejaVuSans-20"/>
      <use x="1516.255859" xlink:href="#DejaVuSans-5b"/>
      <use x="1555.269531" xlink:href="#DejaVuSans-70"/>
      <use x="1618.746094" xlink:href="#DejaVuSans-75"/>
      <use x="1682.125" xlink:href="#DejaVuSans-5d"/>
     </g>
    </g>
   </g>
   <g id="line2d_29">
    <defs>
     <path d="M 0 3 
C 0.795609 3 1.55874 2.683901 2.12132 2.12132 
C 2.683901 1.55874 3 0.795609 3 0 
C 3 -0.795609 2.683901 -1.55874 2.12132 -2.12132 
C 1.55874 -2.683901 0.795609 -3 0 -3 
C -0.795609 -3 -1.55874 -2.683901 -2.12132 -2.12132 
C -2.683901 -1.55874 -3 -0.795609 -3 0 
C -3 0.795609 -2.683901 1.55874 -2.12132 2.12132 
C -1.55874 2.683901 -0.795609 3 0 3 
z
" id="mb3c9bae9ec" style="stroke:#ff0000;"/>
    </defs>
    <g clip-path="url(#pbb02de92c9)">
     <use style="fill:#ff0000;stroke:#ff0000;" x="74.332732" xlink:href="#mb3c9bae9ec" y="53.568"/>
     <use style="fill:#ff0000;stroke:#ff0000;" x="74.755259" xlink:href="#mb3c9bae9ec" y="53.570347"/>
     <use style="fill:#ff0000;stroke:#ff0000;" x="74.141786" xlink:href="#mb3c9bae9ec" y="53.572687"/>
     <use style="fill:#ff0000;stroke:#ff0000;" x="74.067149" xlink:href="#mb3c9bae9ec" y="53.575111"/>
     <use style="fill:#ff0000;stroke:#ff0000;" x="74.071494" xlink:href="#mb3c9bae9ec" y="53.577359"/>
     <use style="fill:#ff0000;stroke:#ff0000;" x="74.128381" xlink:href="#mb3c9bae9ec" y="53.579745"/>
     <use style="fill:#ff0000;stroke:#ff0000;" x="74.148176" xlink:href="#mb3c9bae9ec" y="53.582085"/>
     <use style="fill:#ff0000;stroke:#ff0000;" x="74.703004" xlink:href="#mb3c9bae9ec" y="53.584455"/>
     <use style="fill:#ff0000;stroke:#ff0000;" x="74.442886" xlink:href="#mb3c9bae9ec" y="53.586787"/>
     <use style="fill:#ff0000;stroke:#ff0000;" x="74.225837" xlink:href="#mb3c9bae9ec" y="53.589112"/>
     <use style="fill:#ff0000;stroke:#ff0000;" x="74.069968" xlink:href="#mb3c9bae9ec" y="53.591421"/>
     <use style="fill:#ff0000;stroke:#ff0000;" x="74.235149" xlink:href="#mb3c9bae9ec" y="53.593799"/>
     <use style="fill:#ff0000;stroke:#ff0000;" x="74.281253" xlink:href="#mb3c9bae9ec" y="53.596101"/>
     <use style="fill:#ff0000;stroke:#ff0000;" x="74.590228" xlink:href="#mb3c9bae9ec" y="53.598426"/>
     <use style="fill:#ff0000;stroke:#ff0000;" x="75.294329" xlink:href="#mb3c9bae9ec" y="53.600796"/>
     <use style="fill:#ff0000;stroke:#ff0000;" x="73.832727" xlink:href="#mb3c9bae9ec" y="53.603128"/>
     <use style="fill:#ff0000;stroke:#ff0000;" x="74.852003" xlink:href="#mb3c9bae9ec" y="53.605445"/>
     <use style="fill:#ff0000;stroke:#ff0000;" x="75.258591" xlink:href="#mb3c9bae9ec" y="53.607732"/>
     <use style="fill:#ff0000;stroke:#ff0000;" x="75.095927" xlink:href="#mb3c9bae9ec" y="53.610095"/>
     <use style="fill:#ff0000;stroke:#ff0000;" x="74.321734" xlink:href="#mb3c9bae9ec" y="53.61245"/>
     <use style="fill:#ff0000;stroke:#ff0000;" x="74.901957" xlink:href="#mb3c9bae9ec" y="53.614737"/>
     <use style="fill:#ff0000;stroke:#ff0000;" x="75.183552" xlink:href="#mb3c9bae9ec" y="53.617099"/>
     <use style="fill:#ff0000;stroke:#ff0000;" x="75.310807" xlink:href="#mb3c9bae9ec" y="53.619363"/>
     <use style="fill:#ff0000;stroke:#ff0000;" x="74.599413" xlink:href="#mb3c9bae9ec" y="53.621733"/>
     <use style="fill:#ff0000;stroke:#ff0000;" x="74.864972" xlink:href="#mb3c9bae9ec" y="53.62402"/>
     <use style="fill:#ff0000;stroke:#ff0000;" x="75.292134" xlink:href="#mb3c9bae9ec" y="53.626352"/>
     <use style="fill:#ff0000;stroke:#ff0000;" x="75.068815" xlink:href="#mb3c9bae9ec" y="53.628662"/>
     <use style="fill:#ff0000;stroke:#ff0000;" x="75.341976" xlink:href="#mb3c9bae9ec" y="53.630979"/>
     <use style="fill:#ff0000;stroke:#ff0000;" x="75.185314" xlink:href="#mb3c9bae9ec" y="53.633288"/>
     <use style="fill:#ff0000;stroke:#ff0000;" x="74.764562" xlink:href="#mb3c9bae9ec" y="53.635613"/>
     <use style="fill:#ff0000;stroke:#ff0000;" x="75.44444" xlink:href="#mb3c9bae9ec" y="53.6379"/>
     <use style="fill:#ff0000;stroke:#ff0000;" x="75.4208" xlink:href="#mb3c9bae9ec" y="53.640224"/>
     <use style="fill:#ff0000;stroke:#ff0000;" x="75.877089" xlink:href="#mb3c9bae9ec" y="53.642541"/>
     <use style="fill:#ff0000;stroke:#ff0000;" x="75.506026" xlink:href="#mb3c9bae9ec" y="53.644858"/>
     <use style="fill:#ff0000;stroke:#ff0000;" x="74.706794" xlink:href="#mb3c9bae9ec" y="53.647176"/>
     <use style="fill:#ff0000;stroke:#ff0000;" x="75.060045" xlink:href="#mb3c9bae9ec" y="53.649477"/>
     <use style="fill:#ff0000;stroke:#ff0000;" x="74.904451" xlink:href="#mb3c9bae9ec" y="53.651726"/>
     <use style="fill:#ff0000;stroke:#ff0000;" x="74.843434" xlink:href="#mb3c9bae9ec" y="53.654066"/>
     <use style="fill:#ff0000;stroke:#ff0000;" x="76.708868" xlink:href="#mb3c9bae9ec" y="53.656406"/>
     <use style="fill:#ff0000;stroke:#ff0000;" x="81.059409" xlink:href="#mb3c9bae9ec" y="53.658685"/>
     <use style="fill:#ff0000;stroke:#ff0000;" x="79.589173" xlink:href="#mb3c9bae9ec" y="53.660994"/>
     <use style="fill:#ff0000;stroke:#ff0000;" x="78.758268" xlink:href="#mb3c9bae9ec" y="53.663319"/>
     <use style="fill:#ff0000;stroke:#ff0000;" x="77.78651" xlink:href="#mb3c9bae9ec" y="53.665575"/>
     <use style="fill:#ff0000;stroke:#ff0000;" x="79.620467" xlink:href="#mb3c9bae9ec" y="53.667877"/>
     <use style="fill:#ff0000;stroke:#ff0000;" x="81.170842" xlink:href="#mb3c9bae9ec" y="53.670156"/>
     <use style="fill:#ff0000;stroke:#ff0000;" x="80.321906" xlink:href="#mb3c9bae9ec" y="53.672481"/>
     <use style="fill:#ff0000;stroke:#ff0000;" x="82.729929" xlink:href="#mb3c9bae9ec" y="53.674768"/>
     <use style="fill:#ff0000;stroke:#ff0000;" x="83.934641" xlink:href="#mb3c9bae9ec" y="53.677047"/>
     <use style="fill:#ff0000;stroke:#ff0000;" x="83.669184" xlink:href="#mb3c9bae9ec" y="53.679318"/>
     <use style="fill:#ff0000;stroke:#ff0000;" x="84.138438" xlink:href="#mb3c9bae9ec" y="53.681635"/>
     <use style="fill:#ff0000;stroke:#ff0000;" x="83.929947" xlink:href="#mb3c9bae9ec" y="53.683899"/>
     <use style="fill:#ff0000;stroke:#ff0000;" x="85.435516" xlink:href="#mb3c9bae9ec" y="53.686201"/>
     <use style="fill:#ff0000;stroke:#ff0000;" x="84.800154" xlink:href="#mb3c9bae9ec" y="53.68848"/>
     <use style="fill:#ff0000;stroke:#ff0000;" x="85.652025" xlink:href="#mb3c9bae9ec" y="53.690767"/>
     <use style="fill:#ff0000;stroke:#ff0000;" x="84.975735" xlink:href="#mb3c9bae9ec" y="53.693061"/>
     <use style="fill:#ff0000;stroke:#ff0000;" x="86.819192" xlink:href="#mb3c9bae9ec" y="53.695378"/>
     <use style="fill:#ff0000;stroke:#ff0000;" x="86.677416" xlink:href="#mb3c9bae9ec" y="53.697612"/>
     <use style="fill:#ff0000;stroke:#ff0000;" x="86.03656" xlink:href="#mb3c9bae9ec" y="53.699929"/>
     <use style="fill:#ff0000;stroke:#ff0000;" x="86.978031" xlink:href="#mb3c9bae9ec" y="53.702178"/>
     <use style="fill:#ff0000;stroke:#ff0000;" x="88.034515" xlink:href="#mb3c9bae9ec" y="53.704464"/>
     <use style="fill:#ff0000;stroke:#ff0000;" x="88.033477" xlink:href="#mb3c9bae9ec" y="53.706728"/>
     <use style="fill:#ff0000;stroke:#ff0000;" x="88.311038" xlink:href="#mb3c9bae9ec" y="53.708977"/>
     <use style="fill:#ff0000;stroke:#ff0000;" x="89.161782" xlink:href="#mb3c9bae9ec" y="53.711286"/>
     <use style="fill:#ff0000;stroke:#ff0000;" x="90.853025" xlink:href="#mb3c9bae9ec" y="53.713543"/>
     <use style="fill:#ff0000;stroke:#ff0000;" x="90.033782" xlink:href="#mb3c9bae9ec" y="53.715814"/>
     <use style="fill:#ff0000;stroke:#ff0000;" x="90.87928" xlink:href="#mb3c9bae9ec" y="53.718108"/>
     <use style="fill:#ff0000;stroke:#ff0000;" x="91.797883" xlink:href="#mb3c9bae9ec" y="53.720372"/>
     <use style="fill:#ff0000;stroke:#ff0000;" x="91.803774" xlink:href="#mb3c9bae9ec" y="53.722659"/>
     <use style="fill:#ff0000;stroke:#ff0000;" x="92.463502" xlink:href="#mb3c9bae9ec" y="53.724898"/>
     <use style="fill:#ff0000;stroke:#ff0000;" x="93.975254" xlink:href="#mb3c9bae9ec" y="53.727166"/>
     <use style="fill:#ff0000;stroke:#ff0000;" x="94.178612" xlink:href="#mb3c9bae9ec" y="53.729422"/>
     <use style="fill:#ff0000;stroke:#ff0000;" x="95.180428" xlink:href="#mb3c9bae9ec" y="53.73168"/>
     <use style="fill:#ff0000;stroke:#ff0000;" x="96.211305" xlink:href="#mb3c9bae9ec" y="53.733972"/>
     <use style="fill:#ff0000;stroke:#ff0000;" x="96.286519" xlink:href="#mb3c9bae9ec" y="53.736213"/>
     <use style="fill:#ff0000;stroke:#ff0000;" x="97.469731" xlink:href="#mb3c9bae9ec" y="53.738473"/>
     <use style="fill:#ff0000;stroke:#ff0000;" x="98.406398" xlink:href="#mb3c9bae9ec" y="53.740735"/>
     <use style="fill:#ff0000;stroke:#ff0000;" x="99.832151" xlink:href="#mb3c9bae9ec" y="53.742992"/>
     <use style="fill:#ff0000;stroke:#ff0000;" x="101.415798" xlink:href="#mb3c9bae9ec" y="53.745258"/>
     <use style="fill:#ff0000;stroke:#ff0000;" x="101.728707" xlink:href="#mb3c9bae9ec" y="53.747506"/>
     <use style="fill:#ff0000;stroke:#ff0000;" x="103.519967" xlink:href="#mb3c9bae9ec" y="53.749763"/>
     <use style="fill:#ff0000;stroke:#ff0000;" x="105.305141" xlink:href="#mb3c9bae9ec" y="53.751998"/>
     <use style="fill:#ff0000;stroke:#ff0000;" x="107.076595" xlink:href="#mb3c9bae9ec" y="53.754275"/>
     <use style="fill:#ff0000;stroke:#ff0000;" x="106.736618" xlink:href="#mb3c9bae9ec" y="53.756493"/>
     <use style="fill:#ff0000;stroke:#ff0000;" x="109.689603" xlink:href="#mb3c9bae9ec" y="53.758767"/>
     <use style="fill:#ff0000;stroke:#ff0000;" x="111.069354" xlink:href="#mb3c9bae9ec" y="53.761005"/>
     <use style="fill:#ff0000;stroke:#ff0000;" x="113.264399" xlink:href="#mb3c9bae9ec" y="53.763255"/>
     <use style="fill:#ff0000;stroke:#ff0000;" x="115.590492" xlink:href="#mb3c9bae9ec" y="53.765501"/>
     <use style="fill:#ff0000;stroke:#ff0000;" x="117.759998" xlink:href="#mb3c9bae9ec" y="53.767761"/>
     <use style="fill:#ff0000;stroke:#ff0000;" x="121.21462" xlink:href="#mb3c9bae9ec" y="53.769984"/>
     <use style="fill:#ff0000;stroke:#ff0000;" x="124.548807" xlink:href="#mb3c9bae9ec" y="53.772218"/>
     <use style="fill:#ff0000;stroke:#ff0000;" x="128.247955" xlink:href="#mb3c9bae9ec" y="53.774473"/>
     <use style="fill:#ff0000;stroke:#ff0000;" x="133.477605" xlink:href="#mb3c9bae9ec" y="53.776709"/>
     <use style="fill:#ff0000;stroke:#ff0000;" x="139.555095" xlink:href="#mb3c9bae9ec" y="53.778924"/>
     <use style="fill:#ff0000;stroke:#ff0000;" x="145.836737" xlink:href="#mb3c9bae9ec" y="53.781174"/>
     <use style="fill:#ff0000;stroke:#ff0000;" x="155.508174" xlink:href="#mb3c9bae9ec" y="53.783413"/>
     <use style="fill:#ff0000;stroke:#ff0000;" x="167.621616" xlink:href="#mb3c9bae9ec" y="53.785648"/>
     <use style="fill:#ff0000;stroke:#ff0000;" x="183.92106" xlink:href="#mb3c9bae9ec" y="53.787876"/>
     <use style="fill:#ff0000;stroke:#ff0000;" x="206.510886" xlink:href="#mb3c9bae9ec" y="53.790107"/>
     <use style="fill:#ff0000;stroke:#ff0000;" x="242.647342" xlink:href="#mb3c9bae9ec" y="53.792331"/>
     <use style="fill:#ff0000;stroke:#ff0000;" x="288.287051" xlink:href="#mb3c9bae9ec" y="53.794584"/>
     <use style="fill:#ff0000;stroke:#ff0000;" x="398.487273" xlink:href="#mb3c9bae9ec" y="53.796803"/>
    </g>
   </g>
   <g id="line2d_30">
    <path clip-path="url(#pbb02de92c9)" d="M 74.755259 53.799487 
L 74.141786 90.177233 
L 74.067149 111.45685 
L 74.071494 126.554979 
L 74.128381 138.265998 
L 74.148176 147.834596 
L 74.703004 155.924731 
L 74.442886 162.932725 
L 74.225837 169.114214 
L 74.069968 174.643744 
L 74.235149 179.645812 
L 74.281253 184.212342 
L 74.590228 188.413143 
L 75.294329 192.302477 
L 73.832727 195.923361 
L 74.852003 199.310471 
L 75.258591 202.492172 
L 75.095927 205.49196 
L 74.321734 208.329515 
L 74.901957 211.02149 
L 75.183552 213.582095 
L 75.310807 216.023558 
L 74.599413 218.356475 
L 74.864972 220.590088 
L 75.292134 222.732508 
L 75.068815 224.790889 
L 75.341976 226.771577 
L 75.185314 228.680223 
L 74.764562 230.521886 
L 75.44444 232.301107 
L 75.4208 234.021982 
L 75.877089 235.688217 
L 75.506026 237.303175 
L 74.706794 238.869918 
L 75.060045 240.391242 
L 74.904451 241.869706 
L 74.843434 243.307658 
L 76.708868 244.707261 
L 81.059409 246.070506 
L 79.589173 247.399236 
L 78.758268 248.695153 
L 77.78651 249.959841 
L 79.620467 251.194768 
L 81.170842 252.401304 
L 80.321906 253.580724 
L 82.729929 254.734221 
L 83.934641 255.862909 
L 83.669184 256.967834 
L 84.138438 258.049976 
L 83.929947 259.110254 
L 85.435516 260.149535 
L 84.800154 261.168635 
L 85.652025 262.168322 
L 84.975735 263.149323 
L 86.819192 264.112322 
L 86.677416 265.057969 
L 86.03656 265.986878 
L 86.978031 266.899632 
L 88.034515 267.796782 
L 88.033477 268.678853 
L 88.311038 269.546344 
L 89.161782 270.399728 
L 90.853025 271.239458 
L 90.033782 272.065963 
L 90.87928 272.879654 
L 91.797883 273.680921 
L 91.803774 274.470139 
L 92.463502 275.247664 
L 93.975254 276.013838 
L 94.178612 276.768988 
L 95.180428 277.513426 
L 96.211305 278.247452 
L 96.286519 278.971353 
L 97.469731 279.685404 
L 98.406398 280.389871 
L 99.832151 281.085007 
L 101.415798 281.771056 
L 101.728707 282.448252 
L 103.519967 283.116822 
L 105.305141 283.776982 
L 107.076595 284.42894 
L 106.736618 285.072899 
L 109.689603 285.709052 
L 111.069354 286.337587 
L 113.264399 286.958683 
L 115.590492 287.572514 
L 117.759998 288.179249 
L 121.21462 288.77905 
L 124.548807 289.372073 
L 128.247955 289.95847 
L 133.477605 290.538388 
L 139.555095 291.111967 
L 145.836737 291.679345 
L 155.508174 292.240655 
L 167.621616 292.796026 
L 183.92106 293.34558 
L 206.510886 293.88944 
L 242.647342 294.427722 
L 288.287051 294.960538 
L 398.487273 295.488 
" style="fill:none;stroke:#1f77b4;stroke-linecap:square;stroke-width:1.5;"/>
   </g>
   <g id="patch_3">
    <path d="M 57.6 307.584 
L 57.6 41.472 
" style="fill:none;stroke:#000000;stroke-linecap:square;stroke-linejoin:miter;stroke-width:0.8;"/>
   </g>
   <g id="patch_4">
    <path d="M 414.72 307.584 
L 414.72 41.472 
" style="fill:none;stroke:#000000;stroke-linecap:square;stroke-linejoin:miter;stroke-width:0.8;"/>
   </g>
   <g id="patch_5">
    <path d="M 57.6 307.584 
L 414.72 307.584 
" style="fill:none;stroke:#000000;stroke-linecap:square;stroke-linejoin:miter;stroke-width:0.8;"/>
   </g>
   <g id="patch_6">
    <path d="M 57.6 41.472 
L 414.72 41.472 
" style="fill:none;stroke:#000000;stroke-linecap:square;stroke-linejoin:miter;stroke-width:0.8;"/>
   </g>
  </g>
 </g>
 <defs>
  <clipPath id="pbb02de92c9">
   <rect height="266.112" width="357.12" x="57.6" y="41.472"/>
  </clipPath>
 </defs>
</svg>
